<svg width="35" height="53" viewBox="0 0 35 53" fill="none" xmlns="http://www.w3.org/2000/svg">
<path d="M0 17.5008C0 27.1503 7.84641 35 17.5008 35C27.1519 35 35 27.1536 35 17.5008C35 7.84641 27.1486 0 17.5008 0C7.85142 0 0 7.84641 0 17.5008ZM1.78631 17.5008C1.78631 8.83305 8.83472 1.78464 17.5008 1.78464C26.1653 1.78464 33.2137 8.83472 33.2137 17.5008C33.2137 26.1653 26.1653 33.2137 17.5008 33.2137C8.83472 33.2137 1.78464 26.1653 1.78464 17.5008H1.78631Z" fill="white"/>
<path d="M17.5011 34.032C26.6309 34.032 34.032 26.6309 34.032 17.5011C34.032 8.37134 26.6309 0.970215 17.5011 0.970215C8.37134 0.970215 0.970215 8.37134 0.970215 17.5011C0.970215 26.6309 8.37134 34.032 17.5011 34.032Z" fill="#161082"/>
<path opacity="0.5" d="M17.5011 34.032C26.6309 34.032 34.032 26.6309 34.032 17.5011C34.032 8.37134 26.6309 0.970215 17.5011 0.970215C8.37134 0.970215 0.970215 8.37134 0.970215 17.5011C0.970215 26.6309 8.37134 34.032 17.5011 34.032Z" fill="url(#paint0_radial_199_170)"/>
<path d="M17.5011 34.032C26.6309 34.032 34.032 26.6309 34.032 17.5011C34.032 8.37134 26.6309 0.970215 17.5011 0.970215C8.37134 0.970215 0.970215 8.37134 0.970215 17.5011C0.970215 26.6309 8.37134 34.032 17.5011 34.032Z" fill="#242484"/>
<path d="M12.9581 17.6475C13.0316 17.2035 13.3304 16.903 13.7762 16.903C14.2236 16.903 14.5207 17.2786 14.5207 17.6475H12.9581ZM15.7127 18.3186C15.7862 17.0532 15.1167 16.0098 13.7762 16.0098C12.6576 16.0098 11.7662 16.8278 11.7662 18.0232C11.7662 19.2869 12.5842 20.0315 13.8496 20.0315C14.6693 20.0315 15.489 19.6575 15.7127 18.7677H14.5942C14.4473 19.0632 14.2236 19.2118 13.9264 19.2118C13.4039 19.2118 13.1051 18.8395 13.1051 18.3186H15.7127ZM31.1268 19.6592C32.095 19.6592 32.4673 18.8412 32.4673 18.0215C32.4673 17.2018 32.0934 16.3821 31.1268 16.3821C30.2336 16.3821 29.8613 17.2001 29.8613 18.0215C29.8613 18.8429 30.2336 19.6592 31.1268 19.6592ZM32.9147 19.9564H32.4673V19.2118C32.2436 19.7343 31.6493 20.0315 31.1268 20.0315C30.0082 20.0315 29.4156 19.0632 29.4156 18.0215C29.4156 16.9781 29.9364 16.0098 31.1268 16.0098C31.7227 16.0098 32.2436 16.3103 32.4673 16.8278V14.6709H32.9131V19.958M15.9364 16.16H16.4573L17.4256 19.4388L18.3187 16.16H18.8396L19.7344 19.4388L20.7027 16.16H21.297L20.1067 19.958H19.5842L18.6176 16.7577L17.7227 19.958H17.2019L15.9364 16.16ZM25.1718 18.0232C25.1718 19.14 24.5742 20.0332 23.3822 20.0332C22.1919 20.0332 21.5959 19.14 21.5959 18.0232C21.5959 16.9063 22.1919 16.0115 23.3822 16.0115C24.5007 16.0866 25.1685 16.9797 25.1685 18.0248M22.0416 18.0248C22.0416 18.8429 22.489 19.6609 23.3822 19.6609C24.277 19.6609 24.7227 18.8429 24.7227 18.0232C24.7227 17.2035 24.277 16.3838 23.3822 16.3838C22.489 16.4589 22.0416 17.2769 22.0416 18.0232M25.8396 16.16H26.287V17.0549C26.39 16.7647 26.5824 16.5146 26.8364 16.3406C27.0905 16.1666 27.3932 16.0777 27.701 16.0866V16.5323C26.883 16.4589 26.287 17.13 26.287 17.8746V19.8846H25.8413V16.16M28.2236 14.7444H28.7445V19.9564H28.297V14.7444H28.2236ZM3.79787 18.0215C3.79787 17.5757 3.94812 16.9781 4.54245 16.9781C5.13677 16.9781 5.28702 17.5741 5.28702 18.0215C5.28702 18.4689 5.13677 19.0632 4.54245 19.0632C3.94812 19.0632 3.79787 18.5424 3.79787 18.0215ZM2.53243 18.0215C2.53243 19.1383 3.35213 20.0315 4.54245 20.0315C5.73443 20.0315 6.55413 19.2135 6.55413 18.0215C6.55413 16.903 5.73443 16.0098 4.54078 16.0098C3.35046 16.0849 2.53076 16.903 2.53076 18.0232M7.22358 16.1584H8.41557V16.6809C8.63761 16.307 9.16014 16.0849 9.60589 16.0849C10.8713 16.0849 10.9465 16.9781 10.9465 17.5741V19.9564H9.68268V18.1701C9.68268 17.6475 9.75447 17.1283 9.08502 17.1283C8.63928 17.1283 8.41557 17.5006 8.41557 17.9464V20.0332H7.22191V16.155" fill="white"/>
<path d="M17.5 40.4238C22.2888 40.4238 26.6022 41.1452 29.7002 42.2959C31.2511 42.872 32.4715 43.5465 33.2949 44.2695C34.1191 44.9934 34.5 45.7226 34.5 46.4238C34.5 47.125 34.1191 47.8543 33.2949 48.5781C32.4715 49.3012 31.2511 49.9757 29.7002 50.5518C26.6022 51.7024 22.2888 52.4238 17.5 52.4238C12.7112 52.4238 8.39785 51.7024 5.2998 50.5518C3.74886 49.9757 2.52847 49.3012 1.70508 48.5781C0.880862 47.8543 0.5 47.125 0.5 46.4238C0.5 45.7226 0.880862 44.9934 1.70508 44.2695C2.52847 43.5465 3.74886 42.872 5.2998 42.2959C8.39785 41.1452 12.7112 40.4238 17.5 40.4238Z" fill="#0066B6" stroke="white"/>
<defs>
<radialGradient id="paint0_radial_199_170" cx="0" cy="0" r="1" gradientUnits="userSpaceOnUse" gradientTransform="translate(782.286 591.949) scale(5379.98)">
<stop offset="1" stop-color="#161082" stop-opacity="0.8"/>
</radialGradient>
</defs>
</svg>
