<svg width="98" height="96" viewBox="0 0 98 96" fill="none" xmlns="http://www.w3.org/2000/svg">
<path d="M50 0C72.6274 0 83.9413 -0.000140327 90.9707 7.0293C98.0001 14.0587 98 25.3726 98 48C98 70.6274 98.0001 81.9413 90.9707 88.9707C83.9413 96.0001 72.6274 96 50 96H48C25.3726 96 14.0587 96.0001 7.0293 88.9707C-0.000140377 81.9413 0 70.6274 0 48C0 25.3726 -0.000140377 14.0587 7.0293 7.0293C14.0587 -0.000140327 25.3726 0 48 0H50ZM38.3877 14C31.5462 14.0001 26 19.6031 26 26.5146C26 30.9093 28.2421 34.7752 31.6338 37.0078C28.2423 39.2405 26 43.1056 26 47.5C26 51.8945 28.2422 55.7605 31.6338 57.9932C28.2423 60.2258 26 64.0909 26 68.4854C26 75.4111 31.6168 81 38.4443 81C45.3341 80.9998 51.002 75.3599 51.002 68.3711V56.7119C53.2081 58.7623 56.1527 60.0146 59.3867 60.0146H59.6123C66.4538 60.0146 72 54.4116 72 47.5C72 43.1056 69.7578 39.2405 66.3662 37.0078C69.758 34.7752 72 30.9093 72 26.5146C72 19.6031 66.4538 14.0001 59.6123 14H38.3877ZM46.999 60.0146V68.3711C46.999 73.0982 43.1514 76.9559 38.4443 76.9561C33.7994 76.9561 30.0029 73.1494 30.0029 68.4854C30.003 63.8167 33.7417 60.0301 38.3594 60.0146H46.999ZM46.999 39.0293V55.9707H38.3594C33.7417 55.9552 30.0029 52.1687 30.0029 47.5C30.003 42.8218 33.7569 39.0294 38.3877 39.0293H46.999ZM59.6123 39.0293C64.2431 39.0294 67.997 42.8218 67.9971 47.5C67.9971 52.1782 64.2431 55.9706 59.6123 55.9707H59.3867C54.7559 55.9707 51.002 52.1783 51.002 47.5C51.002 42.8218 54.756 39.0293 59.3867 39.0293H59.6123ZM46.999 34.9854H38.3877C33.7569 34.9853 30.003 31.1929 30.0029 26.5146C30.0029 21.8364 33.7569 18.044 38.3877 18.0439H46.999V34.9854ZM59.6123 18.0439C64.2431 18.044 67.9971 21.8364 67.9971 26.5146C67.997 31.1929 64.2431 34.9853 59.6123 34.9854H51.002V18.0439H59.6123Z" fill="black"/>
</svg>
