<svg width="28" height="28" viewBox="0 0 28 28" fill="none" xmlns="http://www.w3.org/2000/svg">
<path d="M18.5885 6.82745C18.5885 9.50113 13.7474 13.6312 13.7474 13.6312C13.7474 13.6312 8.90625 9.50113 8.90625 6.82745C8.90625 4.15377 11.0737 1.98633 13.7474 1.98633C16.421 1.98633 18.5885 4.15377 18.5885 6.82745Z" fill="black"/>
<rect x="0.304688" y="13.6309" width="6.28037" height="19.3645" rx="3.14019" transform="rotate(-45 0.304688 13.6309)" fill="black" fill-opacity="0.55"/>
<rect width="6.28037" height="19.3645" rx="3.14019" transform="matrix(-0.707107 -0.707107 -0.707107 0.707107 27.6875 13.6309)" fill="black" fill-opacity="0.55"/>
<path fill-rule="evenodd" clip-rule="evenodd" d="M13.9994 18.4414L16.2196 20.6617C17.446 21.888 17.446 23.8762 16.2196 25.1026C15.6065 25.7157 14.803 26.0223 13.9994 26.0223C13.1958 26.0223 12.3922 25.7157 11.7791 25.1026C10.5528 23.8762 10.5528 21.888 11.7791 20.6617L13.9994 18.4414Z" fill="black"/>
</svg>
