<svg width="98" height="96" viewBox="0 0 98 96" fill="none" xmlns="http://www.w3.org/2000/svg">
<path d="M50 0C72.6274 0 83.9413 -0.000140327 90.9707 7.0293C98.0001 14.0587 98 25.3726 98 48C98 70.6274 98.0001 81.9413 90.9707 88.9707C83.9413 96.0001 72.6274 96 50 96H48C25.3726 96 14.0587 96.0001 7.0293 88.9707C-0.000140377 81.9413 0 70.6274 0 48C0 25.3726 -0.000140377 14.0587 7.0293 7.0293C14.0587 -0.000140327 25.3726 0 48 0H50ZM77.5293 40.6719C74.5792 37.7219 69.7959 37.722 66.8457 40.6719L49.9326 57.584L33.0205 40.6719C30.0704 37.7219 25.2871 37.722 22.3369 40.6719C19.3868 43.622 19.3868 48.4052 22.3369 51.3555L44.4727 73.4922C44.511 73.5322 44.5485 73.5739 44.5879 73.6133C46.0638 75.089 47.9983 75.826 49.9326 75.8252C51.8669 75.826 53.8014 75.089 55.2773 73.6133C55.3165 73.5741 55.3535 73.532 55.3916 73.4922L77.5293 51.3555C80.4791 48.4053 80.4792 43.622 77.5293 40.6719ZM49.334 18C42.9018 18.0001 37.6875 23.2143 37.6875 29.6465C37.6875 36.0714 49.3077 45.9922 49.334 46.0146C49.334 46.0146 60.9805 36.0787 60.9805 29.6465C60.9805 23.2143 55.766 18 49.334 18Z" fill="black"/>
</svg>
