<svg width="81" height="56" viewBox="0 0 81 56" fill="none" xmlns="http://www.w3.org/2000/svg">
<g clip-path="url(#clip0_184_1010)">
<path d="M22.3629 55.4519V51.7998C22.3629 50.3998 21.5087 49.4867 20.0443 49.4867C19.3121 49.4867 18.5189 49.7302 17.9697 50.5215C17.5426 49.8519 16.9324 49.4867 16.0172 49.4867C15.407 49.4867 14.7968 49.6693 14.3087 50.3389V49.6085H13.0273V55.4519H14.3087V52.2258C14.3087 51.1911 14.8579 50.7041 15.7121 50.7041C16.5663 50.7041 16.9934 51.2519 16.9934 52.2258V55.4519H18.2748V52.2258C18.2748 51.1911 18.885 50.7041 19.6782 50.7041C20.5324 50.7041 20.9595 51.2519 20.9595 52.2258V55.4519H22.3629ZM41.3392 49.6085H39.2646V47.8432H37.9833V49.6085H36.824V50.765H37.9833V53.4432C37.9833 54.7824 38.5324 55.5737 39.9968 55.5737C40.546 55.5737 41.1562 55.3911 41.5833 55.1476L41.2172 54.0519C40.8511 54.2954 40.424 54.3563 40.1189 54.3563C39.5087 54.3563 39.2646 53.9911 39.2646 53.3824V50.765H41.3392V49.6085ZM52.2002 49.4867C51.468 49.4867 50.9799 49.8519 50.6748 50.3389V49.6085H49.3934V55.4519H50.6748V52.165C50.6748 51.1911 51.1019 50.6432 51.8951 50.6432C52.1392 50.6432 52.4443 50.7041 52.6884 50.765L53.0545 49.5476C52.8104 49.4867 52.4443 49.4867 52.2002 49.4867ZM35.7867 50.0954C35.1765 49.6693 34.3223 49.4867 33.407 49.4867C31.9426 49.4867 30.9663 50.2172 30.9663 51.3737C30.9663 52.3476 31.6985 52.8954 32.9799 53.078L33.5901 53.1389C34.2612 53.2606 34.6273 53.4432 34.6273 53.7476C34.6273 54.1737 34.1392 54.478 33.285 54.478C32.4307 54.478 31.7595 54.1737 31.3324 53.8693L30.7223 54.8432C31.3934 55.3302 32.3087 55.5737 33.224 55.5737C34.9324 55.5737 35.9087 54.7824 35.9087 53.6867C35.9087 52.6519 35.1155 52.1041 33.8951 51.9215L33.285 51.8606C32.7358 51.7998 32.3087 51.678 32.3087 51.3128C32.3087 50.8867 32.7358 50.6432 33.407 50.6432C34.1392 50.6432 34.8714 50.9476 35.2375 51.1302L35.7867 50.0954ZM69.8341 49.4867C69.1019 49.4867 68.6138 49.8519 68.3087 50.3389V49.6085H67.0273V55.4519H68.3087V52.165C68.3087 51.1911 68.7358 50.6432 69.529 50.6432C69.7731 50.6432 70.0782 50.7041 70.3223 50.765L70.6884 49.5476C70.4443 49.4867 70.0782 49.4867 69.8341 49.4867ZM53.4816 52.5302C53.4816 54.2954 54.7019 55.5737 56.5934 55.5737C57.4477 55.5737 58.0579 55.3911 58.668 54.9041L58.0579 53.8693C57.5697 54.2345 57.0816 54.4172 56.5324 54.4172C55.4951 54.4172 54.7629 53.6867 54.7629 52.5302C54.7629 51.4345 55.4951 50.7041 56.5324 50.6432C57.0816 50.6432 57.5697 50.8258 58.0579 51.1911L58.668 50.1563C58.0579 49.6693 57.4477 49.4867 56.5934 49.4867C54.7019 49.4867 53.4816 50.765 53.4816 52.5302ZM65.3189 52.5302V49.6085H64.0375V50.3389C63.6104 49.7911 63.0002 49.4867 62.207 49.4867C60.5595 49.4867 59.2782 50.765 59.2782 52.5302C59.2782 54.2954 60.5595 55.5737 62.207 55.5737C63.0612 55.5737 63.6714 55.2693 64.0375 54.7215V55.4519H65.3189V52.5302ZM60.6206 52.5302C60.6206 51.4954 61.2918 50.6432 62.3901 50.6432C63.4273 50.6432 64.1595 51.4345 64.1595 52.5302C64.1595 53.565 63.4273 54.4172 62.3901 54.4172C61.2918 54.3563 60.6206 53.565 60.6206 52.5302ZM45.3053 49.4867C43.5968 49.4867 42.3765 50.7041 42.3765 52.5302C42.3765 54.3563 43.5968 55.5737 45.3663 55.5737C46.2206 55.5737 47.0748 55.3302 47.746 54.7824L47.1358 53.8693C46.6477 54.2345 46.0375 54.478 45.4273 54.478C44.6341 54.478 43.8409 54.1128 43.6579 53.078H47.9901C47.9901 52.8954 47.9901 52.7737 47.9901 52.5911C48.0511 50.7041 46.9528 49.4867 45.3053 49.4867ZM45.3053 50.5824C46.0985 50.5824 46.6477 51.0693 46.7697 51.9824H43.7189C43.8409 51.1911 44.3901 50.5824 45.3053 50.5824ZM77.0951 52.5302V47.2954H75.8138V50.3389C75.3867 49.7911 74.7765 49.4867 73.9833 49.4867C72.3358 49.4867 71.0545 50.765 71.0545 52.5302C71.0545 54.2954 72.3358 55.5737 73.9833 55.5737C74.8375 55.5737 75.4477 55.2693 75.8138 54.7215V55.4519H77.0951V52.5302ZM72.3968 52.5302C72.3968 51.4954 73.068 50.6432 74.1663 50.6432C75.2036 50.6432 75.9358 51.4345 75.9358 52.5302C75.9358 53.565 75.2036 54.4172 74.1663 54.4172C73.068 54.3563 72.3968 53.565 72.3968 52.5302ZM29.5629 52.5302V49.6085H28.2816V50.3389C27.8545 49.7911 27.2443 49.4867 26.4511 49.4867C24.8036 49.4867 23.5223 50.765 23.5223 52.5302C23.5223 54.2954 24.8036 55.5737 26.4511 55.5737C27.3053 55.5737 27.9155 55.2693 28.2816 54.7215V55.4519H29.5629V52.5302ZM24.8036 52.5302C24.8036 51.4954 25.4748 50.6432 26.5731 50.6432C27.6104 50.6432 28.3426 51.4345 28.3426 52.5302C28.3426 53.565 27.6104 54.4172 26.5731 54.4172C25.4748 54.3563 24.8036 53.565 24.8036 52.5302Z" fill="black"/>
<path d="M54.5797 5.23486H35.3594V39.687H54.5797V5.23486Z" fill="#FF5F00"/>
<path d="M36.5798 22.4609C36.5798 15.4609 39.8747 9.2522 44.9391 5.23481C41.2171 2.31307 36.5188 0.547852 31.3933 0.547852C19.251 0.547852 9.42725 10.3478 9.42725 22.4609C9.42725 34.5739 19.251 44.3739 31.3933 44.3739C36.5188 44.3739 41.2171 42.6087 44.9391 39.687C39.8747 35.7305 36.5798 29.4609 36.5798 22.4609Z" fill="#EB001B"/>
<path d="M80.5119 22.4609C80.5119 34.5739 70.6881 44.3739 58.5458 44.3739C53.4203 44.3739 48.722 42.6087 45 39.687C50.1254 35.6696 53.3593 29.4609 53.3593 22.4609C53.3593 15.4609 50.0644 9.2522 45 5.23481C48.722 2.31307 53.4203 0.547852 58.5458 0.547852C70.6881 0.547852 80.5119 10.4087 80.5119 22.4609Z" fill="#F79E1B"/>
</g>
<defs>
<clipPath id="clip0_184_1010">
<rect width="72" height="56" fill="white" transform="translate(9)"/>
</clipPath>
</defs>
</svg>
