<svg width="269" height="254" viewBox="0 0 269 254" fill="none" xmlns="http://www.w3.org/2000/svg">
<path d="M1.94385 183.9L1.94385 2.63419L48.3715 2.63419L48.3715 35.5616H49.3593C57.0973 13.6649 76.8537 0 101.055 0C127.068 0 145.507 13.3356 151.599 37.0434H152.587C160.819 14.3234 182.551 0 208.893 0C244.454 0 268.327 24.2017 268.327 60.7511L268.327 183.9H220.253L220.253 72.7696C220.253 51.5314 209.551 39.8422 189.959 39.8422C171.026 39.8422 158.349 53.6717 158.349 74.2513L158.349 183.9H111.921L111.921 70.9586C111.921 51.5314 100.726 39.8422 82.1221 39.8422C63.1889 39.8422 50.0179 54.3303 50.0179 74.9099L50.0179 183.9H1.94385Z" fill="#FFEB3B"/>
<path d="M26.0128 203.786C40.1716 203.786 51.8608 214.652 51.8608 228.975C51.8608 243.299 40.1716 254 26.0128 254C11.6894 254 0.000144191 243.299 0.000144191 228.975C0.000144191 214.652 11.6894 203.786 26.0128 203.786Z" fill="#FFEB3B"/>
</svg>
