<?xml version="1.0" encoding="UTF-8"?>
<svg width="204px" height="117px" viewBox="0 0 204 117" version="1.1" xmlns="http://www.w3.org/2000/svg" xmlns:xlink="http://www.w3.org/1999/xlink">
    <!-- Generator: Sketch 56.3 (81716) - https://sketch.com -->
    <title>Artboard</title>
    <desc>Created with Sketch.</desc>
    <g id="Artboard" stroke="none" stroke-width="1" fill="none" fill-rule="evenodd">
        <g id="Group" fill="#333333" fill-rule="nonzero">
            <g id="Group-2" transform="translate(105.722524, 0.000000)">
                <path d="M0,91.9042969 L0,26.3173828 L16.7988281,26.3173828 L16.7988281,38.2314453 L17.15625,38.2314453 C19.9560547,30.3085938 27.1044922,25.3642578 35.8613281,25.3642578 C45.2734375,25.3642578 51.9453125,30.1894531 54.1494141,38.7675781 L54.5068359,38.7675781 C57.4853516,30.546875 65.3486328,25.3642578 74.8798828,25.3642578 C87.7470703,25.3642578 96.3847656,34.1210938 96.3847656,47.3457031 L96.3847656,91.9042969 L78.9902344,91.9042969 L78.9902344,51.6943359 C78.9902344,44.0097656 75.1181641,39.7802734 68.0292969,39.7802734 C61.1787109,39.7802734 56.5917969,44.7841797 56.5917969,52.2304688 L56.5917969,91.9042969 L39.7929688,91.9042969 L39.7929688,51.0390625 C39.7929688,44.0097656 35.7421875,39.7802734 29.0107422,39.7802734 C22.1601562,39.7802734 17.3945312,45.0224609 17.3945312,52.46875 L17.3945312,91.9042969 L0,91.9042969 Z" id="Path" transform="translate(48.192383, 58.634277) rotate(-180.000000) translate(-48.192383, -58.634277) "></path>
                <path d="M87.6757812,18.1689453 C82.5527344,18.1689453 78.3232422,14.2373047 78.3232422,9.0546875 C78.3232422,3.87207031 82.5527344,0 87.6757812,0 C92.8583984,0 97.0878906,3.87207031 97.0878906,9.0546875 C97.0878906,14.2373047 92.8583984,18.1689453 87.6757812,18.1689453 Z" id="Path"></path>
            </g>
            <g id="Group-2" transform="translate(49.000000, 70.270237) rotate(-180.000000) translate(-49.000000, -70.270237) translate(0.000000, 24.270237)">
                <path d="M0,91.9042969 L0,26.3173828 L16.7988281,26.3173828 L16.7988281,38.2314453 L17.15625,38.2314453 C19.9560547,30.3085938 27.1044922,25.3642578 35.8613281,25.3642578 C45.2734375,25.3642578 51.9453125,30.1894531 54.1494141,38.7675781 L54.5068359,38.7675781 C57.4853516,30.546875 65.3486328,25.3642578 74.8798828,25.3642578 C87.7470703,25.3642578 96.3847656,34.1210938 96.3847656,47.3457031 L96.3847656,91.9042969 L78.9902344,91.9042969 L78.9902344,51.6943359 C78.9902344,44.0097656 75.1181641,39.7802734 68.0292969,39.7802734 C61.1787109,39.7802734 56.5917969,44.7841797 56.5917969,52.2304688 L56.5917969,91.9042969 L39.7929688,91.9042969 L39.7929688,51.0390625 C39.7929688,44.0097656 35.7421875,39.7802734 29.0107422,39.7802734 C22.1601562,39.7802734 17.3945312,45.0224609 17.3945312,52.46875 L17.3945312,91.9042969 L0,91.9042969 Z" id="Path" transform="translate(48.192383, 58.634277) rotate(-180.000000) translate(-48.192383, -58.634277) "></path>
                <path d="M87.6757812,18.1689453 C82.5527344,18.1689453 78.3232422,14.2373047 78.3232422,9.0546875 C78.3232422,3.87207031 82.5527344,0 87.6757812,0 C92.8583984,0 97.0878906,3.87207031 97.0878906,9.0546875 C97.0878906,14.2373047 92.8583984,18.1689453 87.6757812,18.1689453 Z" id="Path"></path>
            </g>
        </g>
    </g>
</svg>