<?xml version="1.0" encoding="UTF-8"?>
<svg width="348px" height="249px" viewBox="0 0 348 249" version="1.1" xmlns="http://www.w3.org/2000/svg" xmlns:xlink="http://www.w3.org/1999/xlink">
    <!-- Generator: Sketch 56.3 (81716) - https://sketch.com -->
    <title>Group</title>
    <desc>Created with Sketch.</desc>
    <g id="Page-1" stroke="none" stroke-width="1" fill="none" fill-rule="evenodd" opacity="0.25">
        <g id="Group" fill="#333333" fill-rule="nonzero">
            <path d="M118.852915,136.514077 C118.852915,133.79364 118.762733,131.083876 118.58315,128.387714 L114.591993,128.653554 C114.765684,131.261243 114.852915,133.882344 114.852915,136.514077 L118.852915,136.514077 Z" id="Path" fill-opacity="0.9" transform="translate(116.722454, 132.450896) rotate(-180.000000) translate(-116.722454, -132.450896) "></path>
            <path d="M120.953763,152.110729 C120.590841,149.41596 120.137607,146.74023 119.595266,144.086892 L115.676294,144.887928 C116.200556,147.452815 116.638698,150.039444 116.989552,152.644614 L120.953763,152.110729 Z" id="Path" transform="translate(118.315029, 148.365753) rotate(-180.000000) translate(-118.315029, -148.365753) "></path>
            <path d="M125.143836,167.263256 C124.420242,164.645441 123.608465,162.055885 122.710216,159.498259 L118.936202,160.823709 C119.804403,163.295778 120.589021,165.798697 121.288408,168.32894 L125.143836,167.263256 Z" id="Path" transform="translate(122.040019, 163.913599) rotate(-180.000000) translate(-122.040019, -163.913599) "></path>
            <path d="M131.342335,181.681303 C130.271711,179.188389 129.117073,176.733424 127.880681,174.320258 L124.320735,176.144206 C125.515921,178.476948 126.632052,180.850038 127.666948,183.25976 L131.342335,181.681303 Z" id="Path" transform="translate(127.831535, 178.790009) rotate(-180.000000) translate(-127.831535, -178.790009) "></path>
            <path d="M139.454857,195.158969 C138.056807,192.833706 136.580571,190.556288 135.02896,188.330579 L131.747615,190.618105 C133.247816,192.770069 134.675106,194.971976 136.026768,197.220086 L139.454857,195.158969 Z" id="Path" transform="translate(135.601236, 192.775333) rotate(-180.000000) translate(-135.601236, -192.775333) "></path>
            <path d="M149.325248,207.43597 C147.627175,205.320901 145.858335,203.263285 144.022021,201.266809 L141.07797,203.974679 C142.853673,205.905259 144.564116,207.894944 146.206107,209.940158 L149.325248,207.43597 Z" id="Path" transform="translate(145.201609, 205.603484) rotate(-180.000000) translate(-145.201609, -205.603484) "></path>
            <path d="M160.672704,218.202802 C158.708362,216.333634 156.681786,214.53082 154.596622,212.797701 L152.03982,215.873861 C154.05614,217.54976 156.015829,219.293072 157.915349,221.100558 L160.672704,218.202802 Z" id="Path" transform="translate(156.356262, 216.949129) rotate(-180.000000) translate(-156.356262, -216.949129) "></path>
            <path d="M173.424953,227.39733 C171.227465,225.808283 168.977081,224.2936 166.677644,222.856155 L164.557334,226.247952 C166.78053,227.637736 168.956353,229.102234 171.081078,230.638665 L173.424953,227.39733 Z" id="Path" transform="translate(168.991143, 226.747410) rotate(-180.000000) translate(-168.991143, -226.747410) "></path>
            <path d="M187.3226,234.7954 C184.930819,233.517302 182.495963,232.320244 180.021894,231.206559 L178.380002,234.85405 C180.771562,235.930594 183.12527,237.087758 185.437398,238.323291 L187.3226,234.7954 Z" id="Path" transform="translate(182.851301, 234.764925) rotate(-180.000000) translate(-182.851301, -234.764925) "></path>
            <path d="M202.096523,240.235605 C199.554577,239.294175 196.979487,238.43872 194.374955,237.671018 L193.244035,241.507816 C195.761434,242.249835 198.250377,243.076672 200.707306,243.986615 L202.096523,240.235605 Z" id="Path" transform="translate(197.670279, 240.828816) rotate(-180.000000) translate(-197.670279, -240.828816) "></path>
            <path d="M217.487492,243.616252 C214.8438,243.030003 212.176597,242.532611 209.489277,242.125341 L208.88991,246.080181 C211.487756,246.473891 214.066038,246.9547 216.621513,247.521387 L217.487492,243.616252 Z" id="Path" transform="translate(213.188701, 244.823364) rotate(-180.000000) translate(-213.188701, -244.823364) "></path>
            <path d="M233.053646,244.883726 C230.359581,244.657187 227.650828,244.520174 224.930375,244.473516 L224.861782,248.472928 C227.493226,248.518059 230.11307,248.650575 232.718476,248.869659 L233.053646,244.883726 Z" id="Path" transform="translate(228.957714, 246.671588) rotate(-180.000000) translate(-228.957714, -246.671588) "></path>
            <path d="M248.999876,244.097812 C246.28416,244.231031 243.582067,244.454661 240.896687,244.767779 L241.359951,248.740861 C243.956547,248.438096 246.569496,248.221844 249.19586,248.093008 L248.999876,244.097812 Z" id="Path" transform="translate(245.046273, 246.419337) rotate(-180.000000) translate(-245.046273, -246.419337) "></path>
            <path d="M264.460523,241.223548 C261.789173,241.720069 259.140165,242.306312 256.516977,242.980894 L257.513207,246.854849 C260.048734,246.20281 262.609268,245.636147 265.19148,245.156194 L264.460523,241.223548 Z" id="Path" transform="translate(260.854228, 244.039198) rotate(-180.000000) translate(-260.854228, -244.039198) "></path>
            <path d="M279.405788,236.268963 C276.828964,237.123102 274.283949,238.064098 271.774499,239.090036 L273.288202,242.792562 C275.713776,241.800915 278.173691,240.891385 280.66433,240.065813 L279.405788,236.268963 Z" id="Path" transform="translate(276.219414, 239.530762) rotate(-180.000000) translate(-276.219414, -239.530762) "></path>
            <path d="M293.48502,229.357841 C291.049923,230.551673 288.656401,231.8275 286.308325,233.182856 L288.307985,236.647153 C290.577975,235.336871 292.89184,234.103504 295.245836,232.949433 L293.48502,229.357841 Z" id="Path" transform="translate(290.777080, 233.002497) rotate(-180.000000) translate(-290.777080, -233.002497) "></path>
            <path d="M306.546762,220.577421 C304.295039,222.089284 302.094733,223.676716 299.94966,225.336719 L302.397708,228.500112 C304.471835,226.895013 306.599329,225.360112 308.77649,223.898311 L306.546762,220.577421 Z" id="Path" transform="translate(304.363075, 224.538767) rotate(-180.000000) translate(-304.363075, -224.538767) "></path>
            <path d="M318.287023,210.138517 C316.258467,211.9387 314.290743,213.806623 312.387428,215.738845 L315.23709,218.545876 C317.07761,216.677403 318.980411,214.871111 320.942025,213.130334 L318.287023,210.138517 Z" id="Path" transform="translate(316.664726, 214.342196) rotate(-180.000000) translate(-316.664726, -214.342196) "></path>
            <path d="M328.505093,198.23971 C326.735795,200.294396 325.035936,202.407935 323.408697,204.576587 L326.608166,206.977295 C328.181617,204.880327 329.825315,202.836617 331.536179,200.84979 L328.505093,198.23971 Z" id="Path" transform="translate(327.472438, 202.608503) rotate(-180.000000) translate(-327.472438, -202.608503) "></path>
            <path d="M337.055004,185.03759 C335.577468,187.311766 334.176947,189.635249 332.856121,192.004167 L336.349765,193.952102 C337.626703,191.661898 338.980723,189.415561 340.409236,187.216839 L337.055004,185.03759 Z" id="Path" transform="translate(336.632678, 189.494846) rotate(-180.000000) translate(-336.632678, -189.494846) "></path>
            <path d="M343.743836,170.787881 C342.587215,173.24092 341.513707,175.73337 340.525438,178.261408 L344.250891,179.717774 C345.206144,177.274191 346.243807,174.864966 347.361831,172.493785 L343.743836,170.787881 Z" id="Path" transform="translate(343.943635, 175.252827) rotate(-180.000000) translate(-343.943635, -175.252827) "></path>
            <path d="M112.37015,119.447085 C115.090587,119.447085 117.800351,119.356903 120.496513,119.17732 L120.230673,115.186163 C117.622984,115.359854 115.001883,115.447085 112.37015,115.447085 L112.37015,119.447085 Z" id="Path" fill-opacity="0.8" transform="translate(116.433331, 117.316624) rotate(-90.000000) translate(-116.433331, -117.316624) "></path>
            <path d="M111.095781,104.040501 C113.79055,103.677579 116.46628,103.224345 119.119618,102.682004 L118.318582,98.7630322 C115.753695,99.2872938 113.167066,99.7254353 110.561896,100.07629 L111.095781,104.040501 Z" id="Path" fill-opacity="0.7" transform="translate(114.840757, 101.401766) rotate(-90.000000) translate(-114.840757, -101.401766) "></path>
            <path d="M107.76611,88.9577372 C110.383925,88.2341439 112.973481,87.4223666 115.531107,86.5241175 L114.205657,82.7501034 C111.733588,83.6183045 109.230669,84.4029227 106.700426,85.10231 L107.76611,88.9577372 Z" id="Path" fill-opacity="0.6" transform="translate(111.115767, 85.853920) rotate(-90.000000) translate(-111.115767, -85.853920) "></path>
            <path d="M102.432957,74.4883107 C104.92587,73.4176869 107.380835,72.2630484 109.794001,71.0266566 L107.970054,67.4667105 C105.637312,68.6618968 103.264221,69.7780275 100.854499,70.8129232 L102.432957,74.4883107 Z" id="Path" fill-opacity="0.5" transform="translate(105.324250, 70.977511) rotate(-90.000000) translate(-105.324250, -70.977511) "></path>
            <path d="M95.1709123,60.8458081 C97.4961755,59.4477581 99.7735932,57.9715217 101.999303,56.4199105 L99.711776,53.1385661 C97.5598126,54.6387665 95.3579053,56.0660566 93.1097951,57.4177189 L95.1709123,60.8458081 Z" id="Path" fill-opacity="0.4" transform="translate(97.554549, 56.992187) rotate(-90.000000) translate(-97.554549, -56.992187) "></path>
            <path d="M86.1216897,48.2876752 C88.2367588,46.5896014 90.2943743,44.8207615 92.2908509,42.9844479 L89.5829801,40.040397 C87.6524002,41.8161003 85.6627161,43.5265427 83.6175013,45.1685342 L86.1216897,48.2876752 Z" id="Path" fill-opacity="0.3" transform="translate(87.954176, 44.164036) rotate(-90.000000) translate(-87.954176, -44.164036) "></path>
            <path d="M75.5458508,37.1348327 C77.4150182,35.1704904 79.2178324,33.1439141 80.9509517,31.0587505 L77.8747917,28.5019478 C76.1988924,30.5182685 74.4555807,32.477957 72.648095,34.3774769 L75.5458508,37.1348327 Z" id="Path" fill-opacity="0.2" transform="translate(76.799523, 32.818390) rotate(-90.000000) translate(-76.799523, -32.818390) "></path>
            <path d="M63.5147222,27.453919 C65.1037695,25.2564314 66.6184525,23.006047 68.0558971,20.7066103 L64.6641005,18.5862999 C63.2743159,20.8094964 61.8098184,22.9853195 60.2733871,25.1100447 L63.5147222,27.453919 Z" id="Path" fill-opacity="0.1" transform="translate(64.164642, 23.020109) rotate(-90.000000) translate(-64.164642, -23.020109) "></path>
            <path d="M50.2740095,19.4738936 C51.5521076,17.0821125 52.7491657,14.6472566 53.8628504,12.1731874 L50.2153595,10.5312952 C49.1388157,12.9228553 47.9816522,15.2765641 46.7461187,17.5886917 L50.2740095,19.4738936 Z" id="Path" fill-opacity="0.08" transform="translate(50.304485, 15.002594) rotate(-90.000000) translate(-50.304485, -15.002594) "></path>
            <path d="M36.078718,13.3649473 C37.0201479,10.8230013 37.8756031,8.24791159 38.6433052,5.64337957 L34.8065071,4.51245937 C34.064488,7.02985856 33.2376509,9.5188019 32.3277078,11.9757308 L36.078718,13.3649473 Z" id="Path" fill-opacity="0.06" transform="translate(35.485506, 8.938703) rotate(-90.000000) translate(-35.485506, -8.938703) "></path>
            <path d="M21.1741964,9.24294688 C21.7604454,6.59925519 22.2578366,3.93205231 22.6651073,1.24473184 L18.7102673,0.645365106 C18.3165567,3.24321105 17.8357479,5.82149309 17.2690613,8.37696781 L21.1741964,9.24294688 Z" id="Path" fill-opacity="0.04" transform="translate(19.967084, 4.944156) rotate(-90.000000) translate(-19.967084, -4.944156) "></path>
            <path d="M5.98593288,7.19186373 C6.21247215,4.49779866 6.34948513,1.78904544 6.39614271,-0.93140742 L2.39673087,-1 C2.35159986,1.6314437 2.21908401,4.25128833 2,6.85669354 L5.98593288,7.19186373 Z" id="Path" fill-opacity="0.02" transform="translate(4.198071, 3.095932) rotate(-90.000000) translate(-4.198071, -3.095932) "></path>
        </g>
    </g>
</svg>