<svg width="81" height="56" viewBox="0 0 81 56" fill="none" xmlns="http://www.w3.org/2000/svg">
<path d="M40.5055 29.8564L35.1469 55.5958H28.6656L34.0247 29.8564H40.5055ZM67.7725 46.4771L71.1845 36.8106L73.1471 46.4771H67.7725ZM75.007 55.5958H80.9999L75.7641 29.8564H70.2356C68.9897 29.8564 67.94 30.5988 67.475 31.7433L57.7497 55.5958H64.5562L65.9078 51.752H74.2216L75.007 55.5958ZM58.0871 47.1924C58.1158 40.3998 48.9479 40.0231 49.0088 36.9882C49.0287 36.0658 49.8847 35.0833 51.7567 34.8322C52.6852 34.7092 55.2457 34.6101 58.1489 35.9842L59.2843 30.5237C57.7248 29.9444 55.7184 29.3862 53.2222 29.3862C46.8149 29.3862 42.3074 32.8828 42.2714 37.8941C42.2305 41.5998 45.4911 43.6658 47.9425 44.8999C50.4704 46.1614 51.3175 46.9708 51.3054 48.0978C51.2878 49.8246 49.2892 50.589 47.4293 50.618C44.1683 50.67 42.2792 49.7126 40.7728 48.9913L39.5965 54.6339C41.1131 55.3472 43.9078 55.968 46.8018 56C53.6132 56 58.0671 52.5439 58.0871 47.1924ZM31.2446 29.8564L20.7432 55.5958H13.8928L8.72466 35.0538C8.4116 33.7907 8.13846 33.3265 7.18565 32.7928C5.62716 31.9229 3.05402 31.1095 0.791992 30.6033L0.944871 29.8564H11.9736C13.3782 29.8564 14.6422 30.8169 14.9635 32.4791L17.6934 47.375L24.4357 29.8564H31.2446Z" fill="black"/>
</svg>
