<svg width="98" height="93" viewBox="0 0 98 93" fill="none" xmlns="http://www.w3.org/2000/svg">
<path d="M1.61523 66.906L1.61523 1.31909L18.4141 1.31909L18.4141 13.2332H18.7715C21.5713 5.3103 28.7197 0.365967 37.4766 0.365967C46.8887 0.365967 53.5605 5.19116 55.7646 13.7693L56.1221 13.7693C59.1006 5.54858 66.9639 0.365967 76.4951 0.365967C89.3623 0.365967 98 9.1228 98 22.3474L98 66.906L80.6055 66.906L80.6055 26.696C80.6055 19.0115 76.7334 14.782 69.6445 14.782C62.7939 14.782 58.207 19.7859 58.207 27.2322L58.207 66.906H41.4082L41.4082 26.0408C41.4082 19.0115 37.3574 14.782 30.626 14.782C23.7754 14.782 19.0098 20.0242 19.0098 27.4705L19.0098 66.906H1.61523Z" fill="#333333"/>
<path d="M10.3242 74.1013C15.4473 74.1013 19.6768 78.033 19.6768 83.2156C19.6768 88.3982 15.4473 92.2703 10.3242 92.2703C5.1416 92.2703 0.912109 88.3982 0.912109 83.2156C0.912109 78.033 5.1416 74.1013 10.3242 74.1013Z" fill="#333333"/>
</svg>
